{
	"asset":{
		"generator":"Khronos glTF Blender I/O v4.1.63",
		"version":"2.0"
	},
	"extensionsUsed":[
		"KHR_materials_specular"
	],
	"scene":0,
	"scenes":[
		{
			"name":"Scene",
			"nodes":[
				0
			]
		}
	],
	"nodes":[
		{
			"mesh":0,
			"name":"MotorOBJ",
			"rotation":[
				0.7071068286895752,
				0,
				0,
				0.7071068286895752
			],
			"scale":[
				0.10000000149011612,
				0.10000000149011612,
				0.10000000149011612
			]
		}
	],
	"materials":[
		{
			"doubleSided":true,
			"extensions":{
				"KHR_materials_specular":{
					"specularFactor":0
				}
			},
			"name":"Material__90.001",
			"pbrMetallicRoughness":{
				"baseColorFactor":[
					0.800000011920929,
					0.800000011920929,
					0.800000011920929,
					1
				],
				"metallicFactor":0
			}
		},
		{
			"doubleSided":true,
			"extensions":{
				"KHR_materials_specular":{
					"specularFactor":0
				}
			},
			"name":"08___Default.001",
			"pbrMetallicRoughness":{
				"baseColorFactor":[
					0.800000011920929,
					0.800000011920929,
					0.800000011920929,
					1
				],
				"metallicFactor":0
			}
		},
		{
			"doubleSided":true,
			"extensions":{
				"KHR_materials_specular":{
					"specularFactor":0
				}
			},
			"name":"Material__28.001",
			"pbrMetallicRoughness":{
				"baseColorFactor":[
					0.800000011920929,
					0.800000011920929,
					0.800000011920929,
					1
				],
				"metallicFactor":0
			}
		},
		{
			"doubleSided":true,
			"extensions":{
				"KHR_materials_specular":{
					"specularFactor":0
				}
			},
			"name":"Material__29.001",
			"pbrMetallicRoughness":{
				"baseColorFactor":[
					0.800000011920929,
					0.800000011920929,
					0.800000011920929,
					1
				],
				"metallicFactor":0
			}
		},
		{
			"doubleSided":true,
			"extensions":{
				"KHR_materials_specular":{
					"specularFactor":0
				}
			},
			"name":"Material__27.001",
			"pbrMetallicRoughness":{
				"baseColorFactor":[
					0.800000011920929,
					0.800000011920929,
					0.800000011920929,
					1
				],
				"metallicFactor":0
			}
		},
		{
			"doubleSided":true,
			"extensions":{
				"KHR_materials_specular":{
					"specularFactor":0
				}
			},
			"name":"13___Default.001",
			"pbrMetallicRoughness":{
				"baseColorFactor":[
					0.800000011920929,
					0.800000011920929,
					0.800000011920929,
					1
				],
				"metallicFactor":0
			}
		},
		{
			"doubleSided":true,
			"extensions":{
				"KHR_materials_specular":{
					"specularFactor":0
				}
			},
			"name":"09___Default.001",
			"pbrMetallicRoughness":{
				"baseColorFactor":[
					0.800000011920929,
					0.800000011920929,
					0.800000011920929,
					1
				],
				"metallicFactor":0
			}
		},
		{
			"doubleSided":true,
			"extensions":{
				"KHR_materials_specular":{
					"specularFactor":0
				}
			},
			"name":"07___Default.001",
			"pbrMetallicRoughness":{
				"baseColorFactor":[
					0.800000011920929,
					0.800000011920929,
					0.800000011920929,
					1
				],
				"metallicFactor":0
			}
		},
		{
			"doubleSided":true,
			"extensions":{
				"KHR_materials_specular":{
					"specularFactor":0
				}
			},
			"name":"16___Default.001",
			"pbrMetallicRoughness":{
				"baseColorFactor":[
					0.800000011920929,
					0.800000011920929,
					0.800000011920929,
					1
				],
				"metallicFactor":0
			}
		},
		{
			"doubleSided":true,
			"extensions":{
				"KHR_materials_specular":{
					"specularFactor":0
				}
			},
			"name":"05___Default.001",
			"pbrMetallicRoughness":{
				"baseColorFactor":[
					0.800000011920929,
					0.800000011920929,
					0.800000011920929,
					1
				],
				"metallicFactor":0
			}
		}
	],
	"meshes":[
		{
			"name":"MotorOBJ.001",
			"primitives":[
				{
					"attributes":{
						"POSITION":0,
						"NORMAL":1,
						"TEXCOORD_0":2
					},
					"indices":3,
					"material":0
				},
				{
					"attributes":{
						"POSITION":4,
						"NORMAL":5,
						"TEXCOORD_0":6
					},
					"indices":7,
					"material":1
				},
				{
					"attributes":{
						"POSITION":8,
						"NORMAL":9,
						"TEXCOORD_0":10
					},
					"indices":11,
					"material":2
				},
				{
					"attributes":{
						"POSITION":12,
						"NORMAL":13,
						"TEXCOORD_0":14
					},
					"indices":15,
					"material":3
				},
				{
					"attributes":{
						"POSITION":16,
						"NORMAL":17,
						"TEXCOORD_0":18
					},
					"indices":19,
					"material":4
				},
				{
					"attributes":{
						"POSITION":20,
						"NORMAL":21,
						"TEXCOORD_0":22
					},
					"indices":23,
					"material":5
				},
				{
					"attributes":{
						"POSITION":24,
						"NORMAL":25,
						"TEXCOORD_0":26
					},
					"indices":27,
					"material":6
				},
				{
					"attributes":{
						"POSITION":28,
						"NORMAL":29,
						"TEXCOORD_0":30
					},
					"indices":31,
					"material":7
				},
				{
					"attributes":{
						"POSITION":32,
						"NORMAL":33,
						"TEXCOORD_0":34
					},
					"indices":35,
					"material":8
				},
				{
					"attributes":{
						"POSITION":36,
						"NORMAL":37,
						"TEXCOORD_0":38
					},
					"indices":39,
					"material":9
				}
			]
		}
	],
	"accessors":[
		{
			"bufferView":0,
			"componentType":5126,
			"count":947,
			"max":[
				35.22779846191406,
				20.167499542236328,
				-0.6301000118255615
			],
			"min":[
				-36.26539993286133,
				-19.100299835205078,
				-28.556499481201172
			],
			"type":"VEC3"
		},
		{
			"bufferView":1,
			"componentType":5126,
			"count":947,
			"type":"VEC3"
		},
		{
			"bufferView":2,
			"componentType":5126,
			"count":947,
			"type":"VEC2"
		},
		{
			"bufferView":3,
			"componentType":5123,
			"count":2850,
			"type":"SCALAR"
		},
		{
			"bufferView":4,
			"componentType":5126,
			"count":802,
			"max":[
				54.658599853515625,
				5.531000137329102,
				-8.618300437927246
			],
			"min":[
				-41.05550003051758,
				-4.571100234985352,
				-18.251100540161133
			],
			"type":"VEC3"
		},
		{
			"bufferView":5,
			"componentType":5126,
			"count":802,
			"type":"VEC3"
		},
		{
			"bufferView":6,
			"componentType":5126,
			"count":802,
			"type":"VEC2"
		},
		{
			"bufferView":7,
			"componentType":5123,
			"count":2700,
			"type":"SCALAR"
		},
		{
			"bufferView":8,
			"componentType":5126,
			"count":324,
			"max":[
				10.563400268554688,
				11.993599891662598,
				-2.444999933242798
			],
			"min":[
				-8.022600173950195,
				-10.513400077819824,
				-26.08970069885254
			],
			"type":"VEC3"
		},
		{
			"bufferView":9,
			"componentType":5126,
			"count":324,
			"type":"VEC3"
		},
		{
			"bufferView":10,
			"componentType":5126,
			"count":324,
			"type":"VEC2"
		},
		{
			"bufferView":11,
			"componentType":5123,
			"count":792,
			"type":"SCALAR"
		},
		{
			"bufferView":12,
			"componentType":5126,
			"count":264,
			"max":[
				10.563400268554688,
				11.993599891662598,
				-2.444999933242798
			],
			"min":[
				-8.022600173950195,
				-10.513400077819824,
				-26.08970069885254
			],
			"type":"VEC3"
		},
		{
			"bufferView":13,
			"componentType":5126,
			"count":264,
			"type":"VEC3"
		},
		{
			"bufferView":14,
			"componentType":5126,
			"count":264,
			"type":"VEC2"
		},
		{
			"bufferView":15,
			"componentType":5123,
			"count":756,
			"type":"SCALAR"
		},
		{
			"bufferView":16,
			"componentType":5126,
			"count":1032,
			"max":[
				11.536800384521484,
				8.05370044708252,
				-8.044599533081055
			],
			"min":[
				-8.891500473022461,
				-6.519700050354004,
				-21.813600540161133
			],
			"type":"VEC3"
		},
		{
			"bufferView":17,
			"componentType":5126,
			"count":1032,
			"type":"VEC3"
		},
		{
			"bufferView":18,
			"componentType":5126,
			"count":1032,
			"type":"VEC2"
		},
		{
			"bufferView":19,
			"componentType":5123,
			"count":4752,
			"type":"SCALAR"
		},
		{
			"bufferView":20,
			"componentType":5126,
			"count":78,
			"max":[
				-29.19540023803711,
				3.0624001026153564,
				-11.703700065612793
			],
			"min":[
				-29.423200607299805,
				-2.716900110244751,
				-17.482999801635742
			],
			"type":"VEC3"
		},
		{
			"bufferView":21,
			"componentType":5126,
			"count":78,
			"type":"VEC3"
		},
		{
			"bufferView":22,
			"componentType":5126,
			"count":78,
			"type":"VEC2"
		},
		{
			"bufferView":23,
			"componentType":5123,
			"count":216,
			"type":"SCALAR"
		},
		{
			"bufferView":24,
			"componentType":5126,
			"count":204,
			"max":[
				-12.161100387573242,
				4.4633002281188965,
				-10.302800178527832
			],
			"min":[
				-17.950899124145508,
				-4.117800235748291,
				-18.883899688720703
			],
			"type":"VEC3"
		},
		{
			"bufferView":25,
			"componentType":5126,
			"count":204,
			"type":"VEC3"
		},
		{
			"bufferView":26,
			"componentType":5126,
			"count":204,
			"type":"VEC2"
		},
		{
			"bufferView":27,
			"componentType":5123,
			"count":792,
			"type":"SCALAR"
		},
		{
			"bufferView":28,
			"componentType":5126,
			"count":324,
			"max":[
				-7.478700160980225,
				4.420499801635742,
				-10.345499992370605
			],
			"min":[
				-16.643600463867188,
				-4.075099945068359,
				-18.841100692749023
			],
			"type":"VEC3"
		},
		{
			"bufferView":29,
			"componentType":5126,
			"count":324,
			"type":"VEC3"
		},
		{
			"bufferView":30,
			"componentType":5126,
			"count":324,
			"type":"VEC2"
		},
		{
			"bufferView":31,
			"componentType":5123,
			"count":1080,
			"type":"SCALAR"
		},
		{
			"bufferView":32,
			"componentType":5126,
			"count":110,
			"max":[
				35.11690139770508,
				2.842099905014038,
				-11.977499961853027
			],
			"min":[
				33.84230041503906,
				-2.5018999576568604,
				-17.234399795532227
			],
			"type":"VEC3"
		},
		{
			"bufferView":33,
			"componentType":5126,
			"count":110,
			"type":"VEC3"
		},
		{
			"bufferView":34,
			"componentType":5126,
			"count":110,
			"type":"VEC2"
		},
		{
			"bufferView":35,
			"componentType":5123,
			"count":324,
			"type":"SCALAR"
		},
		{
			"bufferView":36,
			"componentType":5126,
			"count":212,
			"max":[
				9.927200317382812,
				19.01259994506836,
				-1.9651000499725342
			],
			"min":[
				-0.6151999831199646,
				-17.59000015258789,
				-27.221500396728516
			],
			"type":"VEC3"
		},
		{
			"bufferView":37,
			"componentType":5126,
			"count":212,
			"type":"VEC3"
		},
		{
			"bufferView":38,
			"componentType":5126,
			"count":212,
			"type":"VEC2"
		},
		{
			"bufferView":39,
			"componentType":5123,
			"count":408,
			"type":"SCALAR"
		}
	],
	"bufferViews":[
		{
			"buffer":0,
			"byteLength":11364,
			"byteOffset":0,
			"target":34962
		},
		{
			"buffer":0,
			"byteLength":11364,
			"byteOffset":11364,
			"target":34962
		},
		{
			"buffer":0,
			"byteLength":7576,
			"byteOffset":22728,
			"target":34962
		},
		{
			"buffer":0,
			"byteLength":5700,
			"byteOffset":30304,
			"target":34963
		},
		{
			"buffer":0,
			"byteLength":9624,
			"byteOffset":36004,
			"target":34962
		},
		{
			"buffer":0,
			"byteLength":9624,
			"byteOffset":45628,
			"target":34962
		},
		{
			"buffer":0,
			"byteLength":6416,
			"byteOffset":55252,
			"target":34962
		},
		{
			"buffer":0,
			"byteLength":5400,
			"byteOffset":61668,
			"target":34963
		},
		{
			"buffer":0,
			"byteLength":3888,
			"byteOffset":67068,
			"target":34962
		},
		{
			"buffer":0,
			"byteLength":3888,
			"byteOffset":70956,
			"target":34962
		},
		{
			"buffer":0,
			"byteLength":2592,
			"byteOffset":74844,
			"target":34962
		},
		{
			"buffer":0,
			"byteLength":1584,
			"byteOffset":77436,
			"target":34963
		},
		{
			"buffer":0,
			"byteLength":3168,
			"byteOffset":79020,
			"target":34962
		},
		{
			"buffer":0,
			"byteLength":3168,
			"byteOffset":82188,
			"target":34962
		},
		{
			"buffer":0,
			"byteLength":2112,
			"byteOffset":85356,
			"target":34962
		},
		{
			"buffer":0,
			"byteLength":1512,
			"byteOffset":87468,
			"target":34963
		},
		{
			"buffer":0,
			"byteLength":12384,
			"byteOffset":88980,
			"target":34962
		},
		{
			"buffer":0,
			"byteLength":12384,
			"byteOffset":101364,
			"target":34962
		},
		{
			"buffer":0,
			"byteLength":8256,
			"byteOffset":113748,
			"target":34962
		},
		{
			"buffer":0,
			"byteLength":9504,
			"byteOffset":122004,
			"target":34963
		},
		{
			"buffer":0,
			"byteLength":936,
			"byteOffset":131508,
			"target":34962
		},
		{
			"buffer":0,
			"byteLength":936,
			"byteOffset":132444,
			"target":34962
		},
		{
			"buffer":0,
			"byteLength":624,
			"byteOffset":133380,
			"target":34962
		},
		{
			"buffer":0,
			"byteLength":432,
			"byteOffset":134004,
			"target":34963
		},
		{
			"buffer":0,
			"byteLength":2448,
			"byteOffset":134436,
			"target":34962
		},
		{
			"buffer":0,
			"byteLength":2448,
			"byteOffset":136884,
			"target":34962
		},
		{
			"buffer":0,
			"byteLength":1632,
			"byteOffset":139332,
			"target":34962
		},
		{
			"buffer":0,
			"byteLength":1584,
			"byteOffset":140964,
			"target":34963
		},
		{
			"buffer":0,
			"byteLength":3888,
			"byteOffset":142548,
			"target":34962
		},
		{
			"buffer":0,
			"byteLength":3888,
			"byteOffset":146436,
			"target":34962
		},
		{
			"buffer":0,
			"byteLength":2592,
			"byteOffset":150324,
			"target":34962
		},
		{
			"buffer":0,
			"byteLength":2160,
			"byteOffset":152916,
			"target":34963
		},
		{
			"buffer":0,
			"byteLength":1320,
			"byteOffset":155076,
			"target":34962
		},
		{
			"buffer":0,
			"byteLength":1320,
			"byteOffset":156396,
			"target":34962
		},
		{
			"buffer":0,
			"byteLength":880,
			"byteOffset":157716,
			"target":34962
		},
		{
			"buffer":0,
			"byteLength":648,
			"byteOffset":158596,
			"target":34963
		},
		{
			"buffer":0,
			"byteLength":2544,
			"byteOffset":159244,
			"target":34962
		},
		{
			"buffer":0,
			"byteLength":2544,
			"byteOffset":161788,
			"target":34962
		},
		{
			"buffer":0,
			"byteLength":1696,
			"byteOffset":164332,
			"target":34962
		},
		{
			"buffer":0,
			"byteLength":816,
			"byteOffset":166028,
			"target":34963
		}
	],
	"buffers":[
		{
			"byteLength":166844,
			"uri":"Motor.bin"
		}
	]
}
